<svg xmlns="http://www.w3.org/2000/svg" xmlns:xlink="http://www.w3.org/1999/xlink" version="1.1" style="shape-rendering:geometricPrecision; text-rendering:geometricPrecision; image-rendering:optimizeQuality; fill-rule:evenodd; clip-rule:evenodd" viewBox="119.97 219.13 202.89 110.37">
<g><path style="opacity:0.048" fill="#f8fafd" d="M 212.5,219.5 C 222.497,218.281 231.83,220.114 240.5,225C 245.386,228.891 249.886,233.057 254,237.5C 275.893,232.361 290.06,240.528 296.5,262C 317.239,265.724 325.739,277.891 322,298.5C 318.269,307.228 311.769,312.728 302.5,315C 295.209,316.081 287.876,316.747 280.5,317C 275.867,323.81 269.534,327.81 261.5,329C 222.5,329.667 183.5,329.667 144.5,329C 123.434,323.225 115.934,309.725 122,288.5C 124.15,285.022 126.65,281.855 129.5,279C 133.702,276.545 138.035,274.379 142.5,272.5C 143.873,251.294 154.873,238.127 175.5,233C 179.755,232.204 183.921,232.371 188,233.5C 193.099,230.367 197.932,226.867 202.5,223C 205.942,221.816 209.275,220.65 212.5,219.5 Z"/></g>
<g><path style="opacity:0.995" fill="#86a3bf" d="M 279.5,314.5 C 285.785,300.517 282.451,289.35 269.5,281C 265.339,279.263 261.005,278.263 256.5,278C 250.456,255.641 236.122,247.141 213.5,252.5C 210.007,249.84 207.007,246.673 204.5,243C 200.398,239.954 196.065,237.454 191.5,235.5C 205.228,218.928 221.561,216.095 240.5,227C 244.724,230.887 248.558,235.054 252,239.5C 274.503,233.501 289.003,241.667 295.5,264C 311.097,265.266 319.764,273.599 321.5,289C 320.358,302.15 313.358,310.483 300.5,314C 293.508,314.5 286.508,314.666 279.5,314.5 Z"/></g>
<g><path style="opacity:0.997" fill="#c5dff6" d="M 191.5,235.5 C 196.065,237.454 200.398,239.954 204.5,243C 207.007,246.673 210.007,249.84 213.5,252.5C 236.122,247.141 250.456,255.641 256.5,278C 261.005,278.263 265.339,279.263 269.5,281C 282.451,289.35 285.785,300.517 279.5,314.5C 275.676,321.088 270.009,325.254 262.5,327C 222.167,327.667 181.833,327.667 141.5,327C 125.764,320.697 119.597,309.197 123,292.5C 127.399,282.599 134.899,276.599 145.5,274.5C 144.872,254.251 154.206,241.084 173.5,235C 179.522,234.425 185.522,234.591 191.5,235.5 Z"/></g>
</svg>