<svg xmlns="http://www.w3.org/2000/svg" xmlns:xlink="http://www.w3.org/1999/xlink" version="1.1" style="shape-rendering:geometricPrecision; text-rendering:geometricPrecision; image-rendering:optimizeQuality; fill-rule:evenodd; clip-rule:evenodd" viewBox="148.36 175.41 203.1 147.09">
<g><path style="opacity:0.064" fill="#fffcf5" d="M 285.5,175.5 C 288.325,175.081 290.491,176.081 292,178.5C 293.582,184.873 293.582,191.206 292,197.5C 288.255,201.566 284.922,201.233 282,196.5C 281.333,190.833 281.333,185.167 282,179.5C 283.102,178.051 284.269,176.718 285.5,175.5 Z"/></g>
<g><path style="opacity:0.975" fill="#ffcd15" d="M 285.5,177.5 C 287.993,177.329 289.826,178.329 291,180.5C 291.667,185.833 291.667,191.167 291,196.5C 288.667,199.167 286.333,199.167 284,196.5C 283.333,190.833 283.333,185.167 284,179.5C 284.717,178.956 285.217,178.289 285.5,177.5 Z"/></g>
<g><path style="opacity:0.094" fill="#fffefa" d="M 242.5,193.5 C 251.576,194.219 257.91,198.885 261.5,207.5C 260.341,213.091 257.008,214.924 251.5,213C 248,209.5 244.5,206 241,202.5C 240.068,199.177 240.568,196.177 242.5,193.5 Z"/></g>
<g><path style="opacity:0.068" fill="#fffcf3" d="M 324.5,193.5 C 330.792,191.984 333.958,194.317 334,200.5C 330.833,204.333 327.667,208.167 324.5,212C 320.879,214.09 317.379,213.923 314,211.5C 313.333,209.5 313.333,207.5 314,205.5C 317.292,201.2 320.792,197.2 324.5,193.5 Z"/></g>
<g><path style="opacity:0.977" fill="#ffcf20" d="M 244.5,194.5 C 246.308,194.491 247.975,194.991 249.5,196C 252.667,199.167 255.833,202.333 259,205.5C 259.664,210.496 257.498,212.33 252.5,211C 248.184,207.528 244.851,203.362 242.5,198.5C 242.752,196.927 243.418,195.594 244.5,194.5 Z"/></g>
<g><path style="opacity:0.96" fill="#ffce1a" d="M 327.5,194.5 C 331.138,194.964 332.638,196.964 332,200.5C 329.049,203.572 326.216,206.739 323.5,210C 318.138,212.891 315.638,211.391 316,205.5C 319.729,201.602 323.562,197.935 327.5,194.5 Z"/></g>
<g><path style="opacity:0.067" fill="#fffdf5" d="M 333.5,233.5 C 339.072,232.99 344.405,233.823 349.5,236C 352.405,239.374 352.072,242.374 348.5,245C 341.833,245.667 335.167,245.667 328.5,245C 323.822,238.494 325.488,234.661 333.5,233.5 Z"/></g>
<g><path style="opacity:0.968" fill="#ffcd12" d="M 331.5,235.5 C 336.511,235.334 341.511,235.501 346.5,236C 350.037,237.826 350.371,240.16 347.5,243C 341.833,243.667 336.167,243.667 330.5,243C 327.709,240.016 328.042,237.516 331.5,235.5 Z"/></g>
<g><path style="opacity:0.08" fill="#fffefa" d="M 316.5,265.5 C 318.199,265.34 319.866,265.506 321.5,266C 327.36,269.919 331.694,275.086 334.5,281.5C 332.904,285.632 329.904,287.132 325.5,286C 319.788,282.466 315.788,277.632 313.5,271.5C 313.628,269.045 314.628,267.045 316.5,265.5 Z"/></g>
<g><path style="opacity:0.973" fill="#ffcf22" d="M 317.5,267.5 C 318.873,267.343 320.207,267.51 321.5,268C 325,271.5 328.5,275 332,278.5C 332.362,284.391 329.862,285.891 324.5,283C 320.513,279.857 317.513,276.024 315.5,271.5C 315.752,269.927 316.418,268.594 317.5,267.5 Z"/></g>
<g><path style="opacity:0.055" fill="#fdfdfc" d="M 197.5,228.5 C 209.477,224.053 220.81,225.553 231.5,233C 236.251,233.189 240.917,233.855 245.5,235C 247.414,236.413 248.747,238.247 249.5,240.5C 250.325,241.386 251.325,241.719 252.5,241.5C 254.567,219.933 266.4,208.267 288,206.5C 306.906,207.737 317.906,217.737 321,236.5C 322.013,244.434 320.346,251.768 316,258.5C 311.281,263.722 306.115,268.388 300.5,272.5C 313.591,283.454 316.091,296.454 308,311.5C 302.535,317.622 295.702,321.122 287.5,322C 249.5,322.667 211.5,322.667 173.5,322C 152.454,316.745 144.62,303.579 150,282.5C 154.769,274.236 161.603,268.236 170.5,264.5C 171.135,249.05 178.135,237.55 191.5,230C 193.345,228.872 195.345,228.372 197.5,228.5 Z"/></g>
<g><path style="opacity:0.953" fill="#fecd1a" d="M 232.5,236.5 C 236.369,235.204 240.369,235.204 244.5,236.5C 247.395,241.64 245.729,243.973 239.5,243.5C 237.395,240.973 235.061,238.64 232.5,236.5 Z"/></g>
<g><path style="opacity:0.995" fill="#c6e0f6" d="M 232.5,236.5 C 235.061,238.64 237.395,240.973 239.5,243.5C 239.461,244.756 239.961,245.756 241,246.5C 245.472,243.944 250.305,242.944 255.5,243.5C 271.34,246.01 281.006,255.01 284.5,270.5C 306.378,273.883 314.211,286.216 308,307.5C 304.726,312.774 300.226,316.608 294.5,319C 253.546,320.644 212.546,320.977 171.5,320C 155.687,314.872 148.521,304.039 150,287.5C 154.199,276.494 162.033,269.827 173.5,267.5C 172.599,248.959 180.599,235.959 197.5,228.5C 210.706,225.115 222.372,227.781 232.5,236.5 Z"/></g>
<g><path style="opacity:0.995" fill="#fecc08" d="M 284.5,270.5 C 281.006,255.01 271.34,246.01 255.5,243.5C 256.828,218.667 269.828,207.167 294.5,209C 312.843,214.844 320.677,227.344 318,246.5C 313.278,263.448 302.111,271.448 284.5,270.5 Z"/></g>
</svg>