<svg xmlns="http://www.w3.org/2000/svg" xmlns:xlink="http://www.w3.org/1999/xlink" version="1.1" style="shape-rendering:geometricPrecision; text-rendering:geometricPrecision; image-rendering:optimizeQuality; fill-rule:evenodd; clip-rule:evenodd" viewBox="147.85 173.5 202.86 151.29">
<g><path style="opacity:0.117" fill="#f8fafc" d="M 247.5,173.5 C 261.514,173.92 272.347,179.92 280,191.5C 302.58,186.203 317.413,194.537 324.5,216.5C 346.443,220.928 354.609,233.928 349,255.5C 339.365,268.899 326.199,274.065 309.5,271C 304.536,277.824 297.869,282.157 289.5,284C 280.833,284.333 272.167,284.667 263.5,285C 260.576,294.675 254.743,297.175 246,292.5C 244.688,290.045 243.522,287.545 242.5,285C 238.167,284.333 233.833,284.333 229.5,285C 225.805,294.346 219.971,296.179 212,290.5C 210.872,288.655 210.372,286.655 210.5,284.5C 205.821,284.334 201.155,284.501 196.5,285C 193.686,293.412 188.352,295.745 180.5,292C 178.743,289.154 176.743,286.488 174.5,284C 155.423,280.338 146.589,268.838 148,249.5C 151.573,238.259 158.907,230.593 170,226.5C 173.482,198.035 189.649,184.868 218.5,187C 226.446,178.692 236.113,174.192 247.5,173.5 Z"/></g>
<g><path style="opacity:0.998" fill="#c5dff6" d="M 219.5,189.5 C 223.296,192.076 227.296,194.576 231.5,197C 235.059,200.222 238.226,203.722 241,207.5C 257.248,202.308 270.248,206.641 280,220.5C 282.285,224.187 283.452,228.187 283.5,232.5C 302.442,233.607 311.275,243.607 310,262.5C 309.427,264.641 308.594,266.641 307.5,268.5C 304.1,275.058 298.767,279.225 291.5,281C 281.566,282.395 271.566,282.895 261.5,282.5C 261.282,276.96 260.115,271.627 258,266.5C 253.173,271.154 249.339,276.488 246.5,282.5C 240.167,282.5 233.833,282.5 227.5,282.5C 227.849,276.655 227.016,270.988 225,265.5C 219.359,270.13 215.192,275.797 212.5,282.5C 205.879,281.94 199.545,282.607 193.5,284.5C 193.666,279.821 193.499,275.155 193,270.5C 192.784,268.616 192.117,266.949 191,265.5C 186.952,269.88 183.285,274.546 180,279.5C 179.503,281.81 179.337,284.143 179.5,286.5C 178.549,285.081 178.216,283.415 178.5,281.5C 160.339,281.006 150.672,271.673 149.5,253.5C 151.951,240.212 159.785,231.879 173,228.5C 172.425,209.091 181.259,196.258 199.5,190C 206.158,189.5 212.825,189.334 219.5,189.5 Z"/></g>
<g><path style="opacity:0.995" fill="#86a3bf" d="M 307.5,268.5 C 308.594,266.641 309.427,264.641 310,262.5C 311.275,243.607 302.442,233.607 283.5,232.5C 283.452,228.187 282.285,224.187 280,220.5C 270.248,206.641 257.248,202.308 241,207.5C 238.226,203.722 235.059,200.222 231.5,197C 227.296,194.576 223.296,192.076 219.5,189.5C 233.654,173.8 249.987,171.3 268.5,182C 272.203,185.367 275.536,189.034 278.5,193C 289.435,189.917 299.768,191.25 309.5,197C 317.019,202.198 321.352,209.365 322.5,218.5C 342.542,220.698 351.042,231.698 348,251.5C 345.444,259.21 340.277,264.376 332.5,267C 324.227,268.33 315.893,268.83 307.5,268.5 Z"/></g>
<g><path style="opacity:0.996" fill="#3d83c0" d="M 193.5,284.5 C 192.666,291.104 188.999,293.271 182.5,291C 180.859,289.871 179.859,288.371 179.5,286.5C 179.337,284.143 179.503,281.81 180,279.5C 183.285,274.546 186.952,269.88 191,265.5C 192.117,266.949 192.784,268.616 193,270.5C 193.499,275.155 193.666,279.821 193.5,284.5 Z"/></g>
<g><path style="opacity:0.997" fill="#3e83c0" d="M 227.5,282.5 C 226.444,291.524 221.944,293.857 214,289.5C 212.798,287.323 212.298,284.989 212.5,282.5C 215.192,275.797 219.359,270.13 225,265.5C 227.016,270.988 227.849,276.655 227.5,282.5 Z"/></g>
<g><path style="opacity:0.997" fill="#3e84c0" d="M 261.5,282.5 C 260.218,292.559 255.384,294.893 247,289.5C 246.503,287.19 246.337,284.857 246.5,282.5C 249.339,276.488 253.173,271.154 258,266.5C 260.115,271.627 261.282,276.96 261.5,282.5 Z"/></g>
<g><path style="opacity:0.077" fill="#f5f9fb" d="M 239.5,294.5 C 240.833,294.5 242.167,294.5 243.5,294.5C 245.386,302.393 245.886,310.393 245,318.5C 242.232,324.172 237.732,326.006 231.5,324C 227.404,319.431 226.571,314.264 229,308.5C 232.332,303.673 235.832,299.007 239.5,294.5 Z"/></g>
<g><path style="opacity:0.99" fill="#4084c1" d="M 240.5,296.5 C 241.497,296.47 242.164,296.97 242.5,298C 244.905,304.781 245.071,311.615 243,318.5C 240.839,322.124 237.672,323.291 233.5,322C 229.788,319.487 228.622,315.987 230,311.5C 232.941,306.067 236.441,301.067 240.5,296.5 Z"/></g>
<g><path style="opacity:0.06" fill="#f1f6fa" d="M 206.5,293.5 C 208.017,293.511 209.184,294.177 210,295.5C 212.691,303.425 213.025,311.425 211,319.5C 208.103,324.155 203.937,325.655 198.5,324C 195.599,322.1 193.932,319.434 193.5,316C 194.301,311.898 195.801,308.064 198,304.5C 201.808,301.528 204.642,297.861 206.5,293.5 Z"/></g>
<g><path style="opacity:0.989" fill="#3d83c0" d="M 207.5,296.5 C 209.011,298.476 209.844,300.809 210,303.5C 210.667,307.833 210.667,312.167 210,316.5C 208.305,321.599 204.805,323.432 199.5,322C 196.208,319.588 195.041,316.421 196,312.5C 198.618,306.251 202.452,300.918 207.5,296.5 Z"/></g>
</svg>